<svg xmlns="http://www.w3.org/2000/svg" width="2048" height="2048" viewBox="0 0 2048 2048">
  <rect width="100%" height="100%" fill="#010A26"/>
  <path d="M 866 1769 L 866 1773 L 872 1779 L 881 1783 L 914 1788 L 1139 1787 L 1166 1781 L 1178 1773 L 1174 1760 L 1142 1768 L 1128 1769 L 916 1769 L 886 1766 L 870 1760 Z M 751 1032 L 737 1032 L 648 1058 L 647 1495 L 649 1498 L 692 1501 L 752 1502 L 762 1499 L 770 1489 L 771 1048 L 770 1044 L 765 1038 Z M 1296 1030 L 1280 1036 L 1274 1044 L 1274 1489 L 1283 1499 L 1296 1502 L 1396 1499 L 1398 1497 L 1399 1486 L 1398 1058 L 1335 1038 L 1304 1030 Z M 947 580 L 942 585 L 942 1002 L 944 1007 L 942 1017 L 942 1038 L 940 1040 L 935 1040 L 933 1038 L 932 668 L 929 665 L 925 666 L 916 677 L 909 680 L 881 686 L 867 687 L 832 686 L 810 682 L 796 678 L 784 665 L 778 668 L 777 674 L 777 1737 L 780 1741 L 786 1742 L 792 1735 L 804 1731 L 823 1727 L 852 1724 L 900 1727 L 917 1731 L 926 1740 L 930 1740 L 933 1737 L 932 1165 L 933 1150 L 936 1149 L 942 1155 L 942 1624 L 943 1633 L 947 1638 L 951 1637 L 957 1630 L 995 1623 L 999 1625 L 997 1720 L 998 1745 L 1042 1746 L 1044 1744 L 1043 1623 L 1050 1622 L 1082 1627 L 1092 1637 L 1097 1635 L 1099 1632 L 1099 1166 L 1105 1161 L 1109 1162 L 1110 1738 L 1112 1740 L 1116 1740 L 1125 1731 L 1144 1727 L 1173 1724 L 1201 1724 L 1248 1731 L 1258 1741 L 1262 1741 L 1266 1737 L 1265 669 L 1258 666 L 1247 678 L 1227 684 L 1199 688 L 1155 686 L 1125 678 L 1116 666 L 1111 666 L 1108 670 L 1109 1028 L 1108 1038 L 1104 1039 L 1104 1011 L 1100 1009 L 1101 957 L 1099 941 L 1099 584 L 1095 581 L 1091 581 L 1088 583 L 1083 592 L 1058 600 L 1037 603 L 1004 603 L 983 600 L 957 592 L 951 582 Z M 792 1629 L 795 1630 L 794 1680 L 791 1679 Z M 1249 1596 L 1252 1597 L 1251 1648 L 1248 1647 Z M 792 1564 L 795 1565 L 794 1614 L 791 1613 Z M 1249 1479 L 1252 1480 L 1251 1522 L 1248 1521 Z M 1249 1288 L 1252 1289 L 1251 1325 L 1248 1324 Z M 1072 1178 L 1076 1179 L 1075 1618 L 1055 1614 L 1045 1614 L 1042 1611 L 1038 1185 L 1040 1183 L 1065 1181 Z M 1082 1175 L 1085 1176 L 1084 1189 L 1081 1188 Z M 966 1171 L 982 1177 L 1004 1181 L 1007 1183 L 999 1613 L 969 1620 L 965 1618 Z M 1076 1148 L 1076 1162 L 1071 1166 L 1054 1170 L 1037 1170 L 1035 1168 L 1035 1162 L 1041 1158 L 1051 1157 L 1063 1153 L 1073 1147 Z M 965 1143 L 968 1142 L 980 1151 L 989 1155 L 1007 1159 L 1010 1162 L 1010 1167 L 1008 1169 L 997 1168 L 967 1158 L 965 1156 Z M 793 1090 L 796 1091 L 795 1167 L 792 1166 Z M 1107 1079 L 1109 1081 L 1109 1137 L 1108 1142 L 1100 1148 L 1099 1116 L 1102 1108 L 1102 1080 Z M 934 1079 L 940 1079 L 942 1081 L 941 1132 L 938 1131 L 933 1116 Z M 999 1089 L 1004 1083 L 1011 1079 L 1030 1078 L 1041 1082 L 1047 1088 L 1048 1096 L 1046 1100 L 1038 1106 L 1032 1108 L 1015 1108 L 1005 1104 L 1000 1099 Z M 1018 1043 L 1029 1043 L 1033 1049 L 1032 1053 L 1026 1058 L 1019 1057 L 1014 1051 L 1014 1048 Z M 972 1010 L 1075 1009 L 1076 1012 L 1035 1018 L 1017 1018 L 973 1013 Z M 1249 1000 L 1252 1001 L 1251 1273 L 1248 1272 Z M 793 992 L 796 993 L 795 1007 L 792 1006 Z M 1123 971 L 1126 972 L 1125 988 L 1122 987 Z M 1123 941 L 1126 942 L 1125 955 L 1122 954 Z M 793 931 L 796 932 L 795 946 L 792 945 Z M 1123 874 L 1126 875 L 1125 897 L 1122 896 Z M 1082 814 L 1085 815 L 1084 872 L 1081 871 Z M 1082 783 L 1085 784 L 1084 805 L 1081 804 Z M 1082 715 L 1085 716 L 1084 773 L 1081 772 Z M 1082 691 L 1085 692 L 1084 709 L 1081 708 Z M 1132 690 L 1173 697 L 1201 697 L 1239 690 L 1242 691 L 1241 1721 L 1224 1717 L 1202 1715 L 1168 1715 L 1138 1720 L 1131 1719 L 1132 1080 L 1153 1078 L 1157 1075 L 1161 1066 L 1161 1052 L 1159 1046 L 1153 1040 L 1133 1040 L 1131 1038 Z M 802 689 L 824 694 L 843 696 L 881 695 L 906 689 L 910 690 L 911 1039 L 897 1040 L 893 1042 L 888 1053 L 888 1065 L 890 1072 L 894 1077 L 910 1079 L 912 1081 L 911 1720 L 886 1716 L 855 1715 L 836 1716 L 803 1722 L 801 1714 Z M 1075 605 L 1076 909 L 1072 910 L 1059 904 L 1044 900 L 1008 899 L 991 902 L 966 911 L 965 607 L 971 606 L 981 609 L 1007 612 L 1033 612 Z M 722 326 L 678 354 L 636 386 L 586 434 L 554 472 L 516 528 L 484 592 L 463 652 L 460 691 L 449 692 L 445 694 L 442 699 L 434 779 L 432 826 L 434 892 L 438 903 L 435 905 L 417 908 L 414 911 L 414 918 L 426 971 L 428 973 L 446 972 L 448 974 L 478 1078 L 478 1101 L 482 1119 L 534 1231 L 540 1298 L 546 1440 L 552 1453 L 569 1469 L 587 1475 L 613 1479 L 636 1495 L 639 1495 L 640 1061 L 637 1060 L 561 1093 L 544 1108 L 540 1107 L 515 1081 L 507 1075 L 493 1025 L 477 974 L 478 969 L 518 961 L 529 953 L 536 937 L 536 924 L 533 914 L 524 898 L 549 881 L 554 875 L 554 871 L 547 862 L 547 857 L 551 849 L 547 767 L 546 699 L 548 657 L 559 632 L 577 597 L 596 566 L 617 537 L 638 512 L 690 462 L 720 439 L 775 405 L 822 383 L 848 373 L 888 361 L 924 353 L 964 347 L 1003 344 L 1045 344 L 1116 351 L 1183 367 L 1207 375 L 1263 399 L 1296 417 L 1330 439 L 1364 465 L 1405 504 L 1436 541 L 1466 585 L 1502 656 L 1504 733 L 1500 823 L 1498 835 L 1498 848 L 1502 861 L 1496 869 L 1495 875 L 1506 885 L 1525 897 L 1525 900 L 1516 915 L 1513 926 L 1514 941 L 1520 953 L 1530 961 L 1569 968 L 1571 970 L 1570 979 L 1542 1074 L 1529 1084 L 1507 1108 L 1480 1090 L 1410 1060 L 1406 1060 L 1406 1496 L 1409 1496 L 1434 1479 L 1463 1475 L 1479 1469 L 1495 1455 L 1501 1442 L 1511 1252 L 1515 1227 L 1565 1119 L 1569 1104 L 1569 1081 L 1600 975 L 1602 973 L 1621 973 L 1623 970 L 1627 946 L 1635 915 L 1633 909 L 1625 906 L 1614 905 L 1612 903 L 1615 891 L 1616 810 L 1613 757 L 1605 696 L 1601 692 L 1590 691 L 1589 659 L 1587 657 L 1587 648 L 1577 618 L 1555 566 L 1529 518 L 1497 472 L 1471 441 L 1437 406 L 1389 366 L 1348 338 L 1294 308 L 1231 282 L 1177 266 L 1117 254 L 1055 248 L 993 248 L 947 252 L 899 260 L 836 276 L 769 302 Z M 42 40 L 27 59 L 18 75 L 12 91 L 8 112 L 8 1935 L 12 1955 L 18 1972 L 34 1997 L 57 2018 L 85 2033 L 112 2039 L 153 2040 L 1924 2040 L 1949 2037 L 1972 2029 L 1995 2015 L 2015 1995 L 2029 1972 L 2035 1956 L 2039 1937 L 2039 110 L 2035 90 L 2029 74 L 2017 54 L 2007 42 L 1993 30 L 1970 16 L 1953 10 L 1931 6 L 115 6 L 94 10 L 78 16 L 64 23 Z M 52 49 L 81 29 L 97 23 L 116 19 L 1934 19 L 1952 23 L 1971 31 L 1991 45 L 2002 56 L 2012 69 L 2022 91 L 2026 107 L 2027 126 L 2027 1930 L 2024 1949 L 2016 1970 L 2005 1987 L 1989 2003 L 1974 2014 L 1961 2020 L 1948 2024 L 1928 2027 L 118 2027 L 93 2022 L 71 2012 L 45 1990 L 33 1973 L 25 1954 L 21 1938 L 20 1921 L 20 116 L 23 98 L 28 84 L 40 63 Z " fill="#F0C028" fill-rule="evenodd"/>
</svg>